<?xml version="1.0" encoding="utf-8"?>
<!DOCTYPE svg PUBLIC "-//W3C//DTD SVG 20010904//EN" "http://www.w3.org/TR/2001/REC-SVG-20010904/DTD/svg10.dtd">
<svg version="1.0" xmlns="http://www.w3.org/2000/svg" width="298px" height="279px" viewBox="0 0 298 279" preserveAspectRatio="xMidYMid meet">
 <g fill="#ffffff">
  <path d="M0 139.5 l0 -139.5 149 0 149 0 0 139.5 0 139.5 -149 0 -149 0 0 -139.5z m116.6 97.8 c-5.3 -41.9 -13.6 -112.3 -13.6 -115.3 l0 -4 -11 0 c-10.1 0 -11 0.1 -11 1.9 0 1.6 7.5 54 14 97.9 1.1 7.4 2 15.8 2 18.8 l0 5.4 10.1 0 10.1 0 -0.6 -4.7z m36.4 -1.5 c0 -5.5 7.2 -104 8.4 -114 l0.4 -3.8 -14.4 0 -14.4 0 0 3.4 c0 1.9 1.8 26.7 4 55.1 2.2 28.4 4 54.7 4 58.6 l0 6.9 6 0 6 0 0 -6.2z m44 1.4 c0 -4.1 3.3 -27.7 14.8 -106.4 l1.9 -12.8 -10.9 0 c-5.9 0 -10.8 0.2 -10.8 0.5 0 0.3 -1.8 15 -4 32.7 -2.1 17.8 -5.3 43.8 -7 57.8 -1.7 14 -3.3 27.2 -3.6 29.3 l-0.6 3.7 10.1 0 10.1 0 0 -4.8z m-110 -133.7 c0 -1.4 -0.2 -2.5 -0.4 -2.5 -0.2 0 -0.6 1.1 -0.8 2.5 -0.3 1.4 -0.1 2.5 0.3 2.5 0.5 0 0.9 -1.1 0.9 -2.5z m114.9 -5.6 c-0.8 -0.5 -2.1 -0.9 -3 -0.9 -0.9 0 -2.1 -1.4 -2.7 -3.2 l-1 -3.3 -0.1 4.5 -0.1 4.6 4.1 -0.4 c2.8 -0.3 3.7 -0.7 2.8 -1.3z m-97.2 -10.4 c0.2 -2.7 0.2 -2.8 -0.7 -0.7 -0.6 1.5 -1.8 2.2 -3.7 2.2 -1.5 0 -3.5 0.5 -4.3 1 -1.1 0.8 -0.1 1 3.5 0.8 4.8 -0.3 5 -0.4 5.2 -3.3z m83.1 -7.7 c-1.2 -5.3 -1.8 -6 -1.8 -2 0 1.6 -0.3 3.7 -0.6 4.6 -0.4 1.1 0 1.6 1.4 1.6 1.8 0 1.9 -0.4 1 -4.2z m-55.9 -10 c0 -1.8 -0.3 -2.7 -0.6 -2 -0.3 0.8 -2.6 1.2 -6.6 1.2 -3.4 0 -6.9 0.5 -7.7 1 -1.1 0.7 0.4 1 5 1 3.6 0 7.2 0.5 8 1 2.1 1.3 2 1.4 1.9 -2.2z m47.1 -0.8 c2.4 0 3.1 -0.3 2.1 -0.9 -1.2 -0.8 -7.9 -0.4 -9 0.5 -0.1 0.1 0 0.8 0.4 1.4 0.5 0.9 1 0.9 1.8 0.1 0.6 -0.6 2.7 -1.1 4.7 -1.1z m-18.9 -6 c3.9 -0.1 5 -0.3 3.7 -1 -0.9 -0.6 -4.3 -0.7 -7.6 -0.4 -5.2 0.6 -5.9 0.9 -5.4 2.6 0.4 1.7 0.6 1.7 2.2 0.3 1 -0.9 3.6 -1.5 7.1 -1.5z"/>
 </g>
 <g fill="#dc5e6e">
  <path d="M196.4 242.9 c-1 -1.1 -6.1 -6 -11.2 -10.7 l-9.4 -8.7 3.7 -30 c2 -16.5 4.3 -35.2 5.1 -41.5 0.7 -6.3 1.4 -11.8 1.4 -12.2 0 -2.6 4.9 0.6 14.3 9.5 l10.8 10.2 -5.6 37.9 c-3 20.8 -5.5 38.7 -5.5 39.7 0 1.8 1 1.9 15.9 1.9 16.5 0 19 0.6 17.5 4.4 -0.5 1.4 -2.9 1.6 -17.8 1.6 -16.2 0 -17.4 -0.1 -19.2 -2.1z"/>
  <path d="M153.8 202.2 c-1 -0.4 -5.8 -4.4 -10.6 -8.9 l-8.8 -8.1 -2.4 -31.9 c-1.3 -17.5 -2.7 -32.8 -3.1 -34.1 -0.8 -2.1 -1.4 -2.2 -11.9 -2.2 l-11 0 0 3.3 c0 1.7 0.9 10.2 2 18.7 2.5 19.7 2.6 19 -0.6 19 -2 0 -5.8 -3 -15.4 -12 l-12.7 -12 -1.1 -8.2 c-0.7 -4.6 -1.2 -8.9 -1.2 -9.5 0 -1 9.2 -1.3 42.9 -1.3 36.1 0 43.3 0.2 45.7 1.5 1.8 0.9 2.3 1.5 1.2 1.5 -2 0 -2.1 0.1 -5.3 44.5 -1.4 18.7 -2.8 35.5 -3.1 37.3 -0.5 3.2 -1.4 3.7 -4.6 2.4z"/>
  <path d="M82.3 103.9 c1.1 -9.4 6.9 -16.6 14.3 -17.8 3.3 -0.5 3.9 -1.1 5.1 -4.8 0.8 -2.4 3.4 -6.4 5.8 -9 l4.3 -4.8 2.6 2.4 c3.2 3 3.3 4.4 0.2 6.4 -3.2 2.2 -6.3 9 -7.1 16 l-0.7 5.8 -3.2 -2.1 c-1.9 -1.1 -4.2 -2 -5.3 -2 -3.7 0 -8.3 7 -8.3 12.6 0 2.2 -0.4 2.4 -4.1 2.4 l-4.2 0 0.6 -5.1z"/>
 </g>
 <g fill="#eb7174">
  <path d="M65.4 243.5 c-1.6 -4 -0.1 -4.5 14.6 -4.5 l14 0 0 -2.3 c0 -1.3 -1.8 -14.5 -4 -29.3 -9.5 -65.2 -11.2 -77.5 -10.7 -78.1 0.4 -0.3 6.9 5.3 14.6 12.6 7.6 7.2 14.4 13.1 15 13.1 0.6 0 1.1 0.2 1.1 0.4 0 0.4 7.9 65.4 9.6 78.9 l0.6 4.7 8.9 0 8.9 0 0 -4.2 c0 -2.4 -0.9 -15.5 -2 -29.2 -1.1 -13.7 -1.8 -25.2 -1.5 -25.4 0.2 -0.2 5 3.9 10.7 9.2 5.6 5.3 10.9 9.6 11.7 9.6 1.4 0 1.4 3.6 -0.6 31.3 l-0.6 8.7 9 0 9.1 0 0.5 -3.2 c0.3 -1.8 0.9 -6.3 1.3 -10 0.3 -3.8 0.8 -6.8 1.1 -6.8 0.3 0 5 4.3 10.6 9.5 5.6 5.2 10.7 9.5 11.5 9.5 0.7 0 1.1 0.4 0.8 0.9 -0.3 0.4 0.3 1.6 1.4 2.6 1.1 1 2 2.2 2 2.7 0 0.4 -30.8 0.8 -68.5 0.8 -60 0 -68.6 -0.2 -69.1 -1.5z"/>
 </g>
 <g fill="#ce4e68">
  <path d="M208.5 162 c-1.1 -0.5 -6.7 -5.2 -12.4 -10.7 l-10.3 -9.8 1.5 -11.5 c0.8 -6.3 1.2 -11.8 0.8 -12.2 -0.9 -1 -23.1 0.3 -23.1 1.4 0 1.5 -2.5 0.8 -5.5 -1.7 l-3 -2.5 30.3 0 30.2 0 -0.1 2.8 c0 1.5 -1.5 12.2 -3.2 23.8 -3 20.1 -3.3 21.1 -5.2 20.4z"/>
  <path d="M205.5 106.1 c-2.2 -4.4 -4.7 -4.7 -9.9 -1.2 l-4.4 3.1 0.5 -5.9 c1 -10.3 -1.7 -15.1 -8.3 -15.1 -3 0 -3.5 -0.3 -2.9 -1.7 1.9 -4.6 2.3 -7.6 1.5 -9.8 -1.5 -4.1 -3.1 -4.1 -6.5 -0.1 l-3.2 3.8 -1.3 -3.3 c-0.8 -1.8 -2.7 -4.8 -4.3 -6.6 -3.8 -4.3 -7.6 -4.4 -12.8 -0.2 l-3.9 3.1 -1.9 -4.5 c-5.1 -11.8 -14.2 -5.5 -12.6 8.7 0.8 6.8 1.3 6.7 -6.3 0.4 -2.5 -2.1 -4.3 -2.8 -7.5 -2.8 -2.4 0 -4.8 0.5 -5.5 1.2 -0.9 0.9 -1.9 0.5 -4.3 -1.7 l-3 -3 2.1 -1.7 c3 -2.5 9.4 -4 13.3 -3.3 3.1 0.6 3.4 0.4 5.2 -3.5 3.2 -7.1 10.3 -10.4 16.6 -7.7 1.9 0.8 4 2.1 4.7 3 1 1.2 2.5 1.4 6.7 1 6.7 -0.7 9.5 0 13.5 3.4 2.6 2.1 4.1 2.6 7.5 2.4 5.8 -0.3 10 3.4 11.7 10.4 0.8 3.1 2.7 6.7 5 9.3 2 2.4 3.9 5.6 4.3 7.2 0.4 2 1.4 2.9 3.4 3.3 3.8 0.8 9.1 5.4 10.7 9.4 2 4.8 1.8 5.3 -2.6 5.3 -3.4 0 -4.2 -0.4 -5.5 -2.9z"/>
 </g>
</svg>